<svg width="347" height="449" viewBox="0 0 347 449" fill="none" xmlns="http://www.w3.org/2000/svg">
<path fill-rule="evenodd" clip-rule="evenodd" d="M15.2862 62.9092C2.19359 97.0165 -15.729 136.26 -45.1267 157.951C-75.0789 180.051 -99.2808 210.683 -113.61 248.011C-153.59 352.163 -101.568 469.005 2.58316 508.985C54.0182 528.729 108.548 526.035 155.387 505.706C182.579 493.904 221.354 505.129 249.027 515.752C285.892 529.903 327.25 511.49 341.401 474.624C355.552 437.759 337.139 396.401 300.273 382.25C285.829 376.705 273.362 361.622 275.356 346.279C276.426 338.051 276.975 329.825 277.024 321.645C277.125 304.75 286.228 289.013 298.49 277.391C307.928 268.444 315.566 257.303 320.537 244.353C338.35 197.949 315.172 145.89 268.768 128.077C243.818 118.5 205.464 83.5541 194.819 59.0402C184.812 35.9949 165.914 16.8286 140.605 7.11357C90.5917 -12.0848 34.4845 12.8958 15.2862 62.9092Z" fill="url(#paint0_linear_169_271)"/>
<defs>
<linearGradient id="paint0_linear_169_271" x1="50.1958" y1="527.262" x2="235.83" y2="43.6671" gradientUnits="userSpaceOnUse">
<stop stop-color="#759E8B"/>
<stop offset="1" stop-color="#2A3831"/>
</linearGradient>
</defs>
</svg>
