<svg width="412" height="435" viewBox="0 0 412 435" fill="none" xmlns="http://www.w3.org/2000/svg">
<path fill-rule="evenodd" clip-rule="evenodd" d="M452 338C452 301.466 454.668 258.406 474.34 227.62C494.383 196.254 506 158.984 506 119C506 7.43848 415.562 -83 304 -83C248.906 -83 198.963 -60.9434 162.52 -25.1786C141.364 -4.41628 101.142 -1 71.5 -1C32.0116 -1 0 31.0116 0 70.5C0 109.988 32.0116 142 71.5 142C86.9716 142 104.016 151.614 107.653 166.652C109.603 174.717 112.038 182.593 114.924 190.248C120.884 206.057 118.025 224.011 110.743 239.255C105.138 250.99 102 264.128 102 278C102 327.706 142.294 368 192 368C218.725 368 267.055 386.88 285.778 405.951C303.379 423.879 327.891 435 355 435C408.572 435 452 391.572 452 338Z" fill="url(#paint0_linear_169_270)"/>
<defs>
<linearGradient id="paint0_linear_169_270" x1="253" y1="-83" x2="253" y2="435" gradientUnits="userSpaceOnUse">
<stop stop-color="#759E8B"/>
<stop offset="1" stop-color="#2A3831"/>
</linearGradient>
</defs>
</svg>
